<svg xmlns="http://www.w3.org/2000/svg" viewBox="0 0 1099.03 502.541"><defs><style>.cls-1,.cls-5{fill:#fff;}.cls-1{stroke:#000;}.cls-1,.cls-3{stroke-miterlimit:10;}.cls-2{fill:#2d79c1;}.cls-3{fill:#838bc5;stroke:#838bc5;}.cls-4{fill:#4d4d4d;}</style></defs><g id="Globe"><g id="_1" data-name="1"><path class="cls-1" d="M1013.607,420.705" transform="translate(-102.45 -140.845)"/><ellipse class="cls-2" cx="1086.36" cy="339.081" rx="84.357" ry="44.263" transform="translate(27.166 814.511) rotate(-50.122)"/></g><g id="_2" data-name="2"><path class="cls-2" d="M1113.108,347.375c17.689-22.914,30.15-46.68,36.33-67.246-5.805,22.558-18.335,47.873-36.806,71.809-41.471,53.728-97.209,80.235-124.465,59.176-27.273-21.042-15.747-81.665,25.724-135.394s97.191-80.218,124.464-59.176c6.589,5.09,10.913,12.5,13.075,21.57a23.783,23.783,0,0,0-7.61-10.589c-21.4-16.514-69.816,10.384-108.172,60.061-38.339,49.677-52.094,103.337-30.695,119.851C1026.336,423.951,1074.77,397.052,1113.108,347.375Z" transform="translate(-102.45 -140.845)"/><path class="cls-2" d="M1149.438,280.129c4.069-15.815,4.835-30.286,2.009-41.981C1155.38,248.515,1154.511,263.241,1149.438,280.129Z" transform="translate(-102.45 -140.845)"/></g><g id="_3" data-name="3"><path class="cls-2" d="M1102.945,193.442c.477-11.594-2.077-19.953-8.036-23.732-19.186-12.189-66.445,27.835-105.533,89.4s-37.3,143.855-18.1,156.044c.017,0,.017.017.034.017-8.665-1.175-16.956-6.163-24.7-15.867-21.28-26.643-18.573-85.921,22.813-151.09,41.386-65.186,98.264-103.2,127.052-84.934,20.8,13.211,19.68,51.294,2.945,96.681l3.4-64.114Z" transform="translate(-102.45 -140.845)"/><path class="cls-3" d="M983.332,414.5c-4.375,2.571-8.375,2.962-12.019.664A32.726,32.726,0,0,0,983.332,414.5Z" transform="translate(-102.45 -140.845)"/><polyline class="cls-2" points="996.971 119.111 1000.376 54.998 1000.495 52.597"/></g><path id="_4" data-name="4" class="cls-2" d="M1057.728,238.778c5.465-35.36,1.056-76.644-10.35-85.241-39.582-29.827-81.652,45.64-107.509,87.777-27.044,44.073-28.26,105.857-26.438,130.849-28.6-17.229-23.783-74.158,13.806-139.293,37.845-65.526,92.187-104.989,121.4-88.134C1069.526,156.806,1071.91,194.378,1057.728,238.778Z" transform="translate(-102.45 -140.845)"/></g><g id="Text"><path class="cls-2" d="M102.45,238.331h128.2c70.895,0,97.793,36.962,97.793,75.078,0,33.078-17.534,54.563-37.349,63.62,19.782,7.457,45.741,28.313,45.741,66.887,0,50.22-39.444,87.848-101.86,87.848H102.45ZM223.368,354.076c30.142,0,42.6-13.533,42.6-34.144,0-21.5-16.308-32.6-40.783-32.6H164.724v66.739ZM164.724,482.757h57.243c34.286,0,49.823-14.333,49.823-40.936,0-23.641-15.268-38.738-50.176-38.738h-56.89Z" transform="translate(-102.45 -140.845)"/><path class="cls-2" d="M447.922,290.335H358.769v-52H600.251v52h-88.83V531.764h-63.5Z" transform="translate(-102.45 -140.845)"/><path class="cls-2" d="M688.058,445.754c6.689,29.465,27.832,42.383,61.791,42.383,33.871,0,48.356-13.376,48.356-34.857,0-23.882-14.147-34.246-64.33-45.924-79.851-18.745-99.6-47.792-99.6-87.406,0-51.146,38.258-85.876,107.72-85.876,77.909,0,108.946,41.882,113.151,84.8H791.225c-3.064-18.057-13.053-37.668-50.878-37.668-25.752,0-41.292,10.637-41.292,31.47,0,20.408,12.459,28.68,59.87,39.677,85.344,20.106,104.056,51.856,104.056,93.228,0,53.579-40.539,90.335-118.105,90.335-74.482,0-113.712-36.668-120.744-90.164Z" transform="translate(-102.45 -140.845)"/><path class="cls-2" d="M954.821,503.291c-3.037,14.682-13.36,30.516-39.621,30.516-27.426,0-41.527-18.98-41.527-45.462,0-26.021,15.874-46.742,42.7-46.742,29.714,0,37.967,21.316,38.45,31.285H931c-1.5-7.177-5.576-12.194-15.1-12.194-11.152,0-17.469,9.777-17.469,26.861,0,18.759,6.685,27.31,17.367,27.31,8.382,0,12.875-4.95,15.053-11.574Z" transform="translate(-102.45 -140.845)"/><path class="cls-2" d="M1053.128,487.534c0,26.661-15.956,46.273-43.87,46.273-27.329,0-43.278-19.5-43.278-45.8,0-27.192,16.447-46.4,44.429-46.4C1036.349,441.6,1053.128,459.907,1053.128,487.534Zm-62.389.17c0,16.962,7.3,27.011,19.05,27.011,11.941,0,18.58-10.056,18.58-26.861,0-18.44-6.767-27.16-18.921-27.16C998.134,460.694,990.739,469.074,990.739,487.7Z" transform="translate(-102.45 -140.845)"/><path class="cls-2" d="M1069.881,466.355c0-7.62,0-15.171-.171-22.709h23.329c.32,2.144.811,7.067.94,10.5,4.474-6.563,11.556-12.547,24.487-12.547,12.667,0,19.632,6.557,22.737,13.406,5.155-7.2,12.769-13.406,27.151-13.406,15.356,0,27.926,9.438,27.926,32.352v57.809h-23.8V476.925c0-7.959-2.886-15.74-12.875-15.74-10.368,0-14.412,6.684-14.412,20.2v50.379h-23.928V477.845c0-9.131-2.246-16.511-12.663-16.511-9.919,0-14.624,6.1-14.624,21.215v49.215h-24.1Z" transform="translate(-102.45 -140.845)"/><rect class="cls-4" x="0.381" y="421.276" width="1098.649" height="81.266"/><path class="cls-5" d="M122.286,604.174v21.14H111.125v-52.82h23.21c11.517,0,17.717,6.344,17.717,14.5,0,7.089-3.859,10.926-7.677,12.5,2.617.965,6.564,3.689,6.564,13.144v2.607c0,3.552.031,7.6.757,10.07H140.873c-.929-2.3-1.1-6.252-1.1-11.86v-.771c0-5.777-1.458-8.509-9.971-8.509Zm0-9.092h9.575c6.254,0,8.665-2.378,8.665-6.8,0-4.3-2.806-6.7-8.392-6.7h-9.848Z" transform="translate(-102.45 -140.845)"/><path class="cls-5" d="M168.753,607.835c.01,4.959,2.494,9.807,7.96,9.807,4.572,0,5.877-1.835,6.919-4.234h10.989c-1.407,4.854-5.737,12.825-18.2,12.825-13.061,0-18.728-9.766-18.728-20.171,0-12.439,6.384-21.323,19.12-21.323,13.62,0,18.251,9.853,18.251,19.752a24.394,24.394,0,0,1-.144,3.344Zm15.317-6.744c-.077-4.617-1.921-8.5-7.271-8.5-5.261,0-7.378,3.628-7.816,8.5Zm8.206-32.468-12.224,11.355h-9.6l8.81-11.355Z" transform="translate(-102.45 -140.845)"/><path class="cls-5" d="M210.707,613.393c.83,3.159,3.41,4.932,7.506,4.932,4.054,0,5.531-1.455,5.531-3.856,0-2.546-1.7-3.545-7.385-4.939-12.918-3.184-15.033-7.184-15.033-12.78,0-5.826,4.119-12.011,16.082-12.011,12.029,0,16.1,6.568,16.442,11.94H223.41c-.352-1.464-1.329-4.234-6.493-4.234-3.63,0-4.8,1.608-4.8,3.391,0,1.974,1.232,2.926,7.67,4.428,13.231,3.077,15.1,7.613,15.1,13.426,0,6.567-5,12.543-17.086,12.543-12.039,0-17.01-5.81-17.88-12.84Z" transform="translate(-102.45 -140.845)"/><path class="cls-5" d="M251.183,607.835c.009,4.959,2.494,9.807,7.96,9.807,4.571,0,5.877-1.835,6.919-4.234H277.05c-1.406,4.854-5.737,12.825-18.195,12.825-13.062,0-18.729-9.766-18.729-20.171,0-12.439,6.384-21.323,19.121-21.323,13.62,0,18.251,9.853,18.251,19.752a24.394,24.394,0,0,1-.144,3.344Zm15.317-6.744c-.077-4.617-1.921-8.5-7.271-8.5-5.261,0-7.378,3.628-7.816,8.5Z" transform="translate(-102.45 -140.845)"/><path class="cls-5" d="M317.854,615.068a89.176,89.176,0,0,0,.537,10.246H307.9a16.222,16.222,0,0,1-.554-3.876c-1.438,2.228-4.134,4.795-11.149,4.795-9.561,0-13.594-6.285-13.594-12.435,0-9.035,7.254-13.2,18.881-13.2h5.66v-2.424c0-2.818-1.015-5.591-6.107-5.591-4.636,0-5.65,1.97-6.155,4.841H284.442c.595-7.047,4.954-12.749,17.01-12.682,10.623.068,16.4,4.217,16.4,13.657Zm-10.7-7.806H302.68c-6.615,0-9.069,2.019-9.069,5.842,0,2.872,1.762,5.289,5.708,5.289,6.977,0,7.835-4.85,7.835-10.089Z" transform="translate(-102.45 -140.845)"/><path class="cls-5" d="M362.487,613.792c0,3.821.009,7.976.077,11.522H351.805c-.154-1.063-.23-3.187-.3-4.574-2.351,3.981-5.853,5.493-10.919,5.493-8.079,0-13.238-4.91-13.238-14.743V585.658h10.97v23.631c0,4.379,1.358,8,6.11,8,5.006,0,7.077-2.668,7.077-10.521V585.658h10.98Z" transform="translate(-102.45 -140.845)"/><path class="cls-5" d="M379.989,585.658c4.133,7.468,5.812,10.4,7.007,12.429h.077c1.366-2.4,3.781-6.773,7-12.429h12.191l-12.859,18.878,12.819,20.778H393.807c-3.56-6.713-5.79-11.052-6.955-13.33h-.077c-1.05,2.087-3.756,7.23-7,13.33h-12l12.279-19.325-12.206-20.331Z" transform="translate(-102.45 -140.845)"/><path class="cls-5" d="M481.081,592.524l-14.073,19c-6.108,8.284-10.377,14.558-21.992,14.558-11.837,0-17.105-7.512-17.105-14.717,0-7.659,5.146-12.1,14.6-16.609,5.387-1.887,10.659-4.909,10.659-9.947,0-2.866-1.535-5.509-4.982-5.509-3.073,0-5.028,2.246-5.028,5.68,0,3.178,2.645,5.721,5.691,8.6l32.528,31.73h-14.11l-27.948-27.43c-3.227-3.2-6.206-7.2-6.206-12.1,0-8.009,5.882-14.061,15.024-14.061,9.391,0,14.68,6.154,14.68,12.877,0,6.963-5.262,11.077-14.888,15.55-6.823,2.757-8.8,6.511-8.8,9.891,0,3.493,2.254,6.817,7.167,6.817,5.6,0,7.848-2.886,14.27-11.626l9.325-12.713Z" transform="translate(-102.45 -140.845)"/><path class="cls-5" d="M519.808,581.855H503.759v-9.361h43.47v9.361H531.238v43.459h-11.43Z" transform="translate(-102.45 -140.845)"/><path class="cls-5" d="M554.858,607.835c.01,4.959,2.494,9.807,7.96,9.807,4.572,0,5.877-1.835,6.919-4.234h10.989c-1.407,4.854-5.737,12.825-18.2,12.825-13.061,0-18.728-9.766-18.728-20.171,0-12.439,6.384-21.323,19.12-21.323,13.62,0,18.251,9.853,18.251,19.752a24.394,24.394,0,0,1-.144,3.344Zm15.317-6.744c-.077-4.617-1.921-8.5-7.271-8.5-5.261,0-7.378,3.628-7.816,8.5Zm8.206-32.468-12.224,11.355h-9.6l8.81-11.355Z" transform="translate(-102.45 -140.845)"/><path class="cls-5" d="M588.642,625.314V569.39h10.98v55.924Z" transform="translate(-102.45 -140.845)"/><path class="cls-5" d="M618.213,607.835c.009,4.959,2.494,9.807,7.96,9.807,4.571,0,5.876-1.835,6.918-4.234H644.08c-1.406,4.854-5.737,12.825-18.2,12.825-13.062,0-18.729-9.766-18.729-20.171,0-12.439,6.384-21.323,19.121-21.323,13.619,0,18.25,9.853,18.25,19.752a24.563,24.563,0,0,1-.143,3.344Zm15.316-6.744c-.076-4.617-1.921-8.5-7.27-8.5-5.261,0-7.378,3.628-7.817,8.5Zm8.207-32.468-12.225,11.355h-9.6l8.81-11.355Z" transform="translate(-102.45 -140.845)"/><path class="cls-5" d="M687.017,612.5c-1.367,6.607-6.013,13.732-17.831,13.732-12.342,0-18.689-8.541-18.689-20.459,0-11.71,7.145-21.035,19.216-21.035,13.372,0,17.087,9.593,17.3,14.079H676.3c-.678-3.229-2.51-5.487-6.8-5.487-5.019,0-7.862,4.4-7.862,12.088,0,8.442,3.008,12.29,7.816,12.29,3.772,0,5.794-2.228,6.774-5.208Z" transform="translate(-102.45 -140.845)"/><path class="cls-5" d="M731.255,605.41c0,12-7.181,20.823-19.742,20.823-12.3,0-19.477-8.773-19.477-20.612,0-12.237,7.4-20.882,19.994-20.882C723.7,584.739,731.255,592.977,731.255,605.41Zm-28.077.076c0,7.634,3.285,12.156,8.573,12.156,5.374,0,8.361-4.526,8.361-12.088,0-8.3-3.045-12.223-8.514-12.223C706.506,593.331,703.178,597.1,703.178,605.486Z" transform="translate(-102.45 -140.845)"/><path class="cls-5" d="M738.791,595.879c0-3.43,0-6.828-.076-10.221h10.5c.144.966.365,3.181.423,4.728a12.375,12.375,0,0,1,11.02-5.647c5.7,0,8.835,2.951,10.233,6.033,2.32-3.242,5.746-6.033,12.217-6.033,6.912,0,12.569,4.247,12.569,14.56v26.015h-10.71V600.636c0-3.582-1.3-7.084-5.794-7.084-4.666,0-6.486,3.008-6.486,9.091v22.671H761.916V601.049c0-4.109-1.011-7.43-5.7-7.43-4.464,0-6.581,2.744-6.581,9.547v22.148H738.791Z" transform="translate(-102.45 -140.845)"/><path class="cls-5" d="M805.517,595.879c0-3.43,0-6.828-.077-10.221h10.5c.145.966.366,3.181.423,4.728a12.377,12.377,0,0,1,11.021-5.647c5.7,0,8.835,2.951,10.232,6.033,2.321-3.242,5.746-6.033,12.218-6.033,6.912,0,12.568,4.247,12.568,14.56v26.015H851.69V600.636c0-3.582-1.3-7.084-5.794-7.084-4.666,0-6.486,3.008-6.486,9.091v22.671H828.642V601.049c0-4.109-1.011-7.43-5.7-7.43-4.463,0-6.581,2.744-6.581,9.547v22.148H805.517Z" transform="translate(-102.45 -140.845)"/><path class="cls-5" d="M907.093,613.792c0,3.821.01,7.976.077,11.522H896.41c-.153-1.063-.229-3.187-.3-4.574-2.35,3.981-5.853,5.493-10.919,5.493-8.079,0-13.239-4.91-13.239-14.743V585.658h10.971v23.631c0,4.379,1.357,8,6.11,8,5.006,0,7.077-2.668,7.077-10.521V585.658h10.98Z" transform="translate(-102.45 -140.845)"/><path class="cls-5" d="M917.05,595.649c0-3.371,0-7.061-.077-9.991h10.633a46.486,46.486,0,0,1,.423,5.053c1.349-2.491,4.558-5.972,11.5-5.972,7.966,0,13.142,5.382,13.142,15.348v25.227H941.694V601.307c0-4.458-1.485-7.688-6.33-7.688-4.665,0-7.335,2.594-7.335,9.6v22.1H917.05Z" transform="translate(-102.45 -140.845)"/><path class="cls-5" d="M962.41,569.39h10.98v9.792H962.41Zm0,16.268h10.98v39.656H962.41Z" transform="translate(-102.45 -140.845)"/><path class="cls-5" d="M1017.578,612.5c-1.366,6.607-6.012,13.732-17.83,13.732-12.343,0-18.688-8.541-18.688-20.459,0-11.71,7.143-21.035,19.215-21.035,13.372,0,17.086,9.593,17.3,14.079h-10.719c-.676-3.229-2.509-5.487-6.8-5.487-5.018,0-7.862,4.4-7.862,12.088,0,8.442,3.01,12.29,7.817,12.29,3.771,0,5.794-2.228,6.774-5.208Z" transform="translate(-102.45 -140.845)"/><path class="cls-5" d="M1057.428,615.068a89,89,0,0,0,.536,10.246h-10.489a16.171,16.171,0,0,1-.555-3.876c-1.438,2.228-4.135,4.795-11.149,4.795-9.562,0-13.594-6.285-13.594-12.435,0-9.035,7.254-13.2,18.881-13.2h5.659v-2.424c0-2.818-1.014-5.591-6.106-5.591-4.635,0-5.65,1.97-6.156,4.841h-10.44c.594-7.047,4.953-12.749,17.009-12.682,10.623.068,16.4,4.217,16.4,13.657Zm-10.7-7.806h-4.474c-6.615,0-9.069,2.019-9.069,5.842,0,2.872,1.761,5.289,5.708,5.289,6.976,0,7.835-4.85,7.835-10.089Z" transform="translate(-102.45 -140.845)"/><path class="cls-5" d="M1062.739,585.658h6.114V574.921h10.979v10.737h7.769v8.255h-7.769v19.571c0,3.009.92,4.18,4.192,4.18a20.309,20.309,0,0,0,2.5-.123v7.553a24.993,24.993,0,0,1-7.379.757c-7.737,0-10.292-4.138-10.292-11.077V593.913h-6.114Z" transform="translate(-102.45 -140.845)"/><path class="cls-5" d="M1093.717,569.39H1104.7v9.792h-10.979Zm0,16.268H1104.7v39.656h-10.979Z" transform="translate(-102.45 -140.845)"/><path class="cls-5" d="M1151.45,605.41c0,12-7.18,20.823-19.743,20.823-12.3,0-19.477-8.773-19.477-20.612,0-12.237,7.4-20.882,20-20.882C1143.9,584.739,1151.45,592.977,1151.45,605.41Zm-28.077.076c0,7.634,3.285,12.156,8.573,12.156,5.374,0,8.362-4.526,8.362-12.088,0-8.3-3.046-12.223-8.515-12.223C1126.7,593.331,1123.373,597.1,1123.373,605.486Z" transform="translate(-102.45 -140.845)"/><path class="cls-5" d="M1159.053,595.649c0-3.371,0-7.061-.077-9.991h10.633a46.486,46.486,0,0,1,.423,5.053c1.349-2.491,4.558-5.972,11.5-5.972,7.966,0,13.142,5.382,13.142,15.348v25.227H1183.7V601.307c0-4.458-1.485-7.688-6.33-7.688-4.665,0-7.335,2.594-7.335,9.6v22.1h-10.979Z" transform="translate(-102.45 -140.845)"/></g></svg>